<?xml version="1.0" encoding="UTF-8" standalone="no"?>
<svg
   xmlns:dc="http://purl.org/dc/elements/1.1/"
   xmlns:cc="http://creativecommons.org/ns#"
   xmlns:rdf="http://www.w3.org/1999/02/22-rdf-syntax-ns#"
   xmlns:svg="http://www.w3.org/2000/svg"
   xmlns="http://www.w3.org/2000/svg"
   xmlns:xlink="http://www.w3.org/1999/xlink"
   xmlns:sodipodi="http://sodipodi.sourceforge.net/DTD/sodipodi-0.dtd"
   xmlns:inkscape="http://www.inkscape.org/namespaces/inkscape"
   height="16"
   width="16"
   version="1.1"
   id="svg52"
   sodipodi:docname="sc_addons.svg"
   inkscape:version="0.92.3 (2405546, 2018-03-11)">
  <metadata
     id="metadata58">
    <rdf:RDF>
      <cc:Work
         rdf:about="">
        <dc:format>image/svg+xml</dc:format>
        <dc:type
           rdf:resource="http://purl.org/dc/dcmitype/StillImage" />
      </cc:Work>
    </rdf:RDF>
  </metadata>
  <defs
     id="defs56" />
  <sodipodi:namedview
     pagecolor="#ffffff"
     bordercolor="#666666"
     borderopacity="1"
     objecttolerance="10"
     gridtolerance="10"
     guidetolerance="10"
     inkscape:pageopacity="0"
     inkscape:pageshadow="2"
     inkscape:window-width="1366"
     inkscape:window-height="676"
     id="namedview54"
     showgrid="true"
     inkscape:zoom="14.75"
     inkscape:cx="8"
     inkscape:cy="8"
     inkscape:window-x="0"
     inkscape:window-y="27"
     inkscape:window-maximized="1"
     inkscape:current-layer="svg52">
    <inkscape:grid
       type="xygrid"
       id="grid868" />
  </sodipodi:namedview>
  <linearGradient
     id="a">
    <stop
       offset="0"
       stop-color="#fff"
       id="stop2" />
    <stop
       offset="1"
       stop-color="#fff"
       stop-opacity="0"
       id="stop4" />
  </linearGradient>
  <filter
     id="b"
     color-interpolation-filters="sRGB">
    <feGaussianBlur
       stdDeviation=".40704226"
       id="feGaussianBlur7" />
  </filter>
  <linearGradient
     id="c">
    <stop
       offset="0"
       stop-color="#0d0"
       id="stop10" />
    <stop
       offset="1"
       stop-color="#000e00"
       id="stop12" />
  </linearGradient>
  <linearGradient
     id="d"
     gradientUnits="userSpaceOnUse"
     x1="70.999763"
     x2="70.999763"
     xlink:href="#c"
     y1="40.792381"
     y2="90.367455"
     gradientTransform="translate(-1.2966361,1.6469151)" />
  <linearGradient
     id="e"
     gradientUnits="userSpaceOnUse"
     x1="77.749763"
     x2="77.749763"
     xlink:href="#c"
     y1="100.68314"
     y2="46.330647"
     gradientTransform="matrix(0.47429885,0,0,0.47429885,-24.039549,-28.911972)" />
  <radialGradient
     id="f"
     cx="70.478012"
     cy="89.574303"
     gradientTransform="matrix(0.73932011,0,0,0.71517925,-42.717719,-50.680783)"
     gradientUnits="userSpaceOnUse"
     r="18.978512">
    <stop
       offset="0"
       stop-color="#0f0"
       id="stop17" />
    <stop
       offset="1"
       stop-color="#004d00"
       id="stop19" />
  </radialGradient>
  <radialGradient
     id="g"
     cx="70.766693"
     cy="66.595299"
     gradientTransform="matrix(0.58087698,0,0,0.56190972,-31.550668,-36.951774)"
     gradientUnits="userSpaceOnUse"
     r="18.978512"
     xlink:href="#a" />
  <radialGradient
     id="h"
     cx="57.522243"
     cy="63.842773"
     gradientTransform="matrix(0.98296709,0,0,0.95087048,-55.652663,-62.999825)"
     gradientUnits="userSpaceOnUse"
     r="18.978512">
    <stop
       offset="0"
       stop-color="#bfffbf"
       id="stop23" />
    <stop
       offset="1"
       stop-color="#bfffbf"
       stop-opacity="0"
       id="stop25" />
  </radialGradient>
  <radialGradient
     id="i"
     cx="56.692532"
     cy="75.276314"
     gradientTransform="matrix(0.98296705,0,0,0.95087045,-55.654507,-62.999823)"
     gradientUnits="userSpaceOnUse"
     r="18.978512"
     xlink:href="#a" />
  <linearGradient
     id="j"
     gradientUnits="userSpaceOnUse"
     x1="71.9375"
     x2="71.9375"
     y1="92.231743"
     y2="73.141258"
     gradientTransform="matrix(0.47429885,0,0,0.47429885,-24.039549,-28.911972)">
    <stop
       offset="0"
       stop-color="#f0ff80"
       id="stop29" />
    <stop
       offset="1"
       stop-color="#f0ff80"
       stop-opacity="0"
       id="stop31" />
  </linearGradient>
  <path
     d="M 9.3149014,1.8211132 C 8.5437711,1.8325176 7.7565276,2.1100192 7.7005969,2.7453333 7.6582277,3.2266028 8.4082732,3.6279118 8.1072537,4.0885332 7.6537461,4.7824926 6.1006889,4.3966065 5.0265201,4.3966065 5.0337533,5.7152599 4.8678616,7.2269291 4.632186,7.6745072 4.3782055,8.1568501 4.1156348,8.2374678 3.720289,7.9825806 3.4367985,7.7998091 3.0500835,7.3048192 2.6974851,7.3048192 c -0.5020366,0 -1.1213868,0.7334839 -1.1213868,1.8237944 0,1.0903094 0.6540347,1.6882414 1.1460329,1.6882414 0.4150343,0 0.8254045,-0.388767 1.1953251,-0.591501 0.4249863,-0.2329124 0.7802726,-0.2564474 0.8502818,0.20949 0.054382,0.361933 0.194773,3.087231 0.2325961,3.63619 l 0.026189,0.0015 c 1.1024416,0.0061 2.7776834,0.236203 3.3493734,-0.258782 0.4146291,-0.358997 -0.6185876,-1.191447 -0.3450422,-1.700565 0.2594875,-0.482954 0.743284,-0.627569 1.5157208,-0.616147 0.7711308,0.0114 1.5706978,0.288906 1.6266278,0.92422 0.04236,0.48127 -0.719999,0.882578 -0.418979,1.343201 0.453507,0.693959 2.440331,0.308073 3.5145,0.308073 0.09218,-0.996033 0.04038,-3.334919 -0.505241,-3.822575 -0.566806,-0.3933004 -0.64401,0.428276 -1.232294,0.382011 -0.506128,-0.218438 -0.963822,-0.8947464 -0.96119,-1.6389855 0.0025,-0.7149445 0.444809,-1.4968239 0.96119,-1.6143047 0.518635,-0.1179934 1.089795,0.4376397 1.749856,0.2464587 0.194406,-0.056275 0.186501,-2.6063931 0,-3.2285759 C 13.178603,4.4027326 11.057272,4.6327659 10.485583,4.137781 10.070953,3.7787837 11.104169,2.9463342 10.830624,2.437216 10.571136,1.9542646 10.087339,1.8096485 9.3149014,1.8210716 Z"
     id="path38"
     style="fill:#f0e3ec;fill-rule:evenodd;stroke:#e602b4;stroke-width:1;stroke-linejoin:round;stroke-miterlimit:4;stroke-dasharray:none"
     inkscape:connector-curvature="0" />
</svg>
