<?xml version="1.0" encoding="UTF-8"?>
<svg width="16" height="16" version="1.1" viewBox="0 0 4.2333 4.2333" xmlns="http://www.w3.org/2000/svg" xmlns:cc="http://creativecommons.org/ns#" xmlns:dc="http://purl.org/dc/elements/1.1/" xmlns:rdf="http://www.w3.org/1999/02/22-rdf-syntax-ns#" xmlns:xlink="http://www.w3.org/1999/xlink">
 <metadata>
  <rdf:RDF>
   <cc:Work rdf:about="">
    <dc:format>image/svg+xml</dc:format>
    <dc:type rdf:resource="http://purl.org/dc/dcmitype/StillImage"/>
    <dc:title/>
   </cc:Work>
  </rdf:RDF>
 </metadata>
 <linearGradient id="c" x1="46.048" x2="46.048" y1="128.02" y2="16.62" gradientTransform="matrix(-.010177 0 0 .012942 4.0175 -.24161)" gradientUnits="userSpaceOnUse" xlink:href="#d"/>
 <linearGradient id="d">
  <stop stop-color="#c7cdd7" offset="0"/>
  <stop stop-color="#fff" offset="1"/>
 </linearGradient>
 <linearGradient id="e" x1="46.048" x2="46.048" y1="128.02" y2="16.62" gradientTransform="matrix(-.010177 0 0 .012942 4.0175 2.9321)" gradientUnits="userSpaceOnUse" xlink:href="#d"/>
 <linearGradient id="f" x1="46.048" x2="46.048" y1="128.02" y2="16.62" gradientTransform="matrix(-.010177 0 0 .012942 1.3716 1.3457)" gradientUnits="userSpaceOnUse" xlink:href="#d"/>
 <filter id="q" x="-.13992" y="-.13874" width="1.2798" height="1.2775">
  <feGaussianBlur stdDeviation=".28784801"/>
 </filter>
 <filter id="u" x="-.012" y="-.012" width="1.024" height="1.024" color-interpolation-filters="sRGB">
  <feGaussianBlur stdDeviation=".28192153"/>
 </filter>
 <path d="m2.7427 1.0136-0.87144-0.23103-0.05547 0.15286 0.35055 0.22001-0.73071 0.34176 0.097546 0.20982 0.73071-0.34176-0.059754 0.40549 0.15486 0.060916z" fill="#9d3a9b" stroke-width=".033073"/>
 <path d="m2.7427 2.9882-0.3837-0.81807-0.1524 0.055638 0.0573 0.41077-0.73071-0.34176-0.097546 0.20982 0.73071 0.34176-0.3481 0.21473 0.053016 0.15814z" fill="#9d3a9b" stroke-width=".033073"/>
 <path d="m1.4194 1.6536v0.69453l-1e-7 0.23151-1.1541 2e-7v-0.92604h0.92326zm-0.23082 0.23151h-0.69244v0.46302h0.69244z" fill="#e602b4" stroke-width=".033073"/>
 <path d="m1.1886 1.8848h-0.69244l1.1e-7 0.46314h0.69244z" fill="url(#f)" stroke-width=".125"/>
 <path d="m3.7275 0.49598h-0.69244v0.46314h0.69244z" fill="url(#c)" stroke-width=".125"/>
 <path d="m3.9583 0.26458v0.92604h-1.1541v-0.92604l0.92326 3e-8zm-0.23082 0.23151-0.69244-3e-8v0.46302l0.69244 3e-8z" fill="#e602b4" stroke-width=".033073"/>
 <path d="m3.7275 3.273h-0.69244v0.46314h0.69244z" fill="url(#e)" stroke-width=".125"/>
 <path d="m3.9583 3.0427v0.92604h-1.1541l-1e-7 -0.23151 1e-7 -0.57878v-0.11576h0.92326zm-0.23082 0.23151h-0.69244v0.46302h0.69244z" fill="#e602b4" stroke-width=".033073"/>
 <g transform="matrix(-.082501 0 0 .08275 5.2025 -21.684)" fill="#9d3a9b">
  <rect x="20.676" y="279.23" width="5.5954" height="16.786" rx="1.7362" ry="1.731" stroke-width="1.1446"/>
  <rect transform="rotate(90)" x="284.82" y="-31.867" width="5.5954" height="16.786" rx="1.2364" ry="1.2402" stroke-width="1.1446"/>
  <g stroke-width=".30284">
   <path d="m31.726 286.22c1.3e-5 -0.43826-0.35527-0.79354-0.79352-0.79352h-5.261v-5.2612c1.3e-5 -0.43826-0.35527-0.79354-0.79352-0.79352h-2.8093c-0.43825-2e-5 -0.79353 0.35526-0.79352 0.79352v5.2612h-5.261c-0.43826-2e-5 -0.79353 0.35526-0.79352 0.79352v2.8093c-1.3e-5 0.43826 0.35526 0.79354 0.79352 0.79352h5.261v5.261c-1.3e-5 0.43825 0.35526 0.79353 0.79352 0.79352h2.8093c0.43825 1e-5 0.79353-0.35527 0.79352-0.79352v-5.261h5.261c0.43826 2e-5 0.79353-0.35526 0.79352-0.79352z" fill-opacity=".90588"/>
   <path d="m31.726 286.22c1.3e-5 -0.43826-0.35527-0.79354-0.79352-0.79352h-5.261v-5.2612c1.3e-5 -0.43826-0.35527-0.79354-0.79352-0.79352h-2.8093c-0.43825-2e-5 -0.79353 0.35526-0.79352 0.79352v5.2612h-5.261c-0.43826-2e-5 -0.79353 0.35526-0.79352 0.79352v2.8093c-1.3e-5 0.43826 0.35526 0.79354 0.79352 0.79352h5.261v5.261c-1.3e-5 0.43825 0.35526 0.79353 0.79352 0.79352h2.8093c0.43825 1e-5 0.79353-0.35527 0.79352-0.79352v-5.261h5.261c0.43826 2e-5 0.79353-0.35526 0.79352-0.79352z"/>
   <path d="m31.726 286.22c1.3e-5 -0.43826-0.35527-0.79354-0.79352-0.79352h-5.261v-5.2612c1.3e-5 -0.43826-0.35527-0.79354-0.79352-0.79352h-2.8093c-0.43825-2e-5 -0.79353 0.35526-0.79352 0.79352v5.2612h-5.261c-0.43826-2e-5 -0.79353 0.35526-0.79352 0.79352v2.8093c-1.3e-5 0.43826 0.35526 0.79354 0.79352 0.79352h5.261v5.261c-1.3e-5 0.43825 0.35526 0.79353 0.79352 0.79352h2.8093c0.43825 1e-5 0.79353-0.35527 0.79352-0.79352v-5.261h5.261c0.43826 2e-5 0.79353-0.35526 0.79352-0.79352z"/>
   <path d="m31.726 286.22c1.3e-5 -0.43826-0.35527-0.79354-0.79352-0.79352h-5.261v-5.2612c1.3e-5 -0.43826-0.35527-0.79354-0.79352-0.79352h-2.8093c-0.43825-2e-5 -0.79353 0.35526-0.79352 0.79352v5.2612h-5.261c-0.43826-2e-5 -0.79353 0.35526-0.79352 0.79352v2.8093c-1.3e-5 0.43826 0.35526 0.79354 0.79352 0.79352h5.261v5.261c-1.3e-5 0.43825 0.35526 0.79353 0.79352 0.79352h2.8093c0.43825 1e-5 0.79353-0.35527 0.79352-0.79352v-5.261h5.261c0.43826 2e-5 0.79353-0.35526 0.79352-0.79352z"/>
   <path d="m31.726 286.22c1.3e-5 -0.43826-0.35527-0.79354-0.79352-0.79352h-5.261v-5.2612c1.3e-5 -0.43826-0.35527-0.79354-0.79352-0.79352h-2.8093c-0.43825-2e-5 -0.79353 0.35526-0.79352 0.79352v5.2612h-5.261c-0.43826-2e-5 -0.79353 0.35526-0.79352 0.79352v2.8093c-1.3e-5 0.43826 0.35526 0.79354 0.79352 0.79352h5.261v5.261c-1.3e-5 0.43825 0.35526 0.79353 0.79352 0.79352h2.8093c0.43825 1e-5 0.79353-0.35527 0.79352-0.79352v-5.261h5.261c0.43826 2e-5 0.79353-0.35526 0.79352-0.79352z"/>
  </g>
  <g fill-rule="evenodd" stroke-width="1.1446">
   <path transform="matrix(-.17186 .17186 .17351 .17351 19.277 278.42)" d="m31.7 16 2.875-3.375c-1.0512-1.6958-3.9351-2.288-5.9375-0.3125l2.8125 3.375z" filter="url(#q)" opacity=".49813"/>
   <path transform="matrix(-.17135 -.17135 .16972 -.16972 25.221 302.67)" d="m31.7 16 2.875-3.375c-1.0512-1.6958-3.9351-2.288-5.9375-0.3125l2.8125 3.375z" filter="url(#q)" opacity=".79026"/>
   <path transform="matrix(-.15563 .15563 -.15712 -.15712 31.997 292.16)" d="m31.7 16 2.875-3.375c-1.0512-1.6958-3.9351-2.288-5.9375-0.3125l2.8125 3.375z" filter="url(#q)" opacity=".49813"/>
   <path transform="matrix(-.15712 -.15712 .15563 -.15563 27.865 305.05)" d="m88.7 16 2.875-3.375c-1.0512-1.6958-3.9351-2.288-5.9375-0.3125l2.8125 3.375z" filter="url(#q)" opacity=".79026"/>
   <path transform="matrix(-.14289 -.14289 -.14153 .14153 37.346 288.75)" d="m31.7 16 2.875-3.375c-1.0512-1.6958-3.9351-2.288-5.9375-0.3125l2.8125 3.375z" filter="url(#q)" opacity=".79026"/>
   <path transform="matrix(-.1467 -.1467 -.1453 .1453 39.867 291.2)" d="m88.7 16 2.875-3.375c-1.0512-1.6958-3.9351-2.288-5.9375-0.3125l2.8125 3.375z" filter="url(#q)" opacity=".79026"/>
  </g>
  <path d="m30.933 286.22h-6.0545v-6.0547h-2.8093v6.0547h-6.0545v2.8093h6.0545v6.0545h2.8093v-6.0545h6.0545z" stroke-width=".30284"/>
  <path transform="matrix(.26458 0 0 .26458 14.063 278.21)" d="m40.876 7.3749-10.618-5e-6v22.884l-22.884-4.35e-4v10.618h22.883l1e-6 22.883h10.618v-22.883l22.883-1e-5 -1e-5 -10.618h-22.883zm-0.75422 0.75422-6.1e-4 22.129c-4e-5 0.41656 0.33766 0.75426 0.75422 0.75422h22.129v9.1095h-22.129c-0.41656-4e-5 -0.75426 0.33766-0.75422 0.75422v22.129h-9.1095v-22.129c4e-5 -0.41656-0.33766-0.75426-0.75422-0.75422h-22.129v-9.1095l22.129 4.36e-4c0.41656 3.9e-5 0.75426-0.33766 0.75422-0.75422v-22.13z" fill-opacity=".77941" filter="url(#u)" stroke-width="1.2254"/>
  <path d="m22.069 280.16v6.0544h-6.0544v1.8324a17.313 10.263 0 0 0 4.7082 0.39636 17.313 10.263 0 0 0 10.21-1.9901v-0.23875h-6.0544v-6.0544z" stroke-width=".30284"/>
 </g>
 <g transform="matrix(.125 0 0 .125 .5347 -33.468)">
  <circle cx="5.1109" cy="292.09" r="6.35" fill="#f3b7d9" stroke="#9d3a9b" stroke-linejoin="round" stroke-width="2.1167"/>
  <path d="m2.7179 288.5 2.393 2.393 2.393-2.393 1.1948 1.1948-2.393 2.393 2.393 2.393-1.1948 1.1948-2.393-2.393-2.393 2.393-1.1948-1.1948 2.393-2.393-2.393-2.393z" fill="#e602b4" stroke-width=".26458"/>
 </g>
</svg>
