<?xml version="1.0" encoding="UTF-8" standalone="no"?>
<svg
   xmlns:dc="http://purl.org/dc/elements/1.1/"
   xmlns:cc="http://creativecommons.org/ns#"
   xmlns:rdf="http://www.w3.org/1999/02/22-rdf-syntax-ns#"
   xmlns:svg="http://www.w3.org/2000/svg"
   xmlns="http://www.w3.org/2000/svg"
   xmlns:xlink="http://www.w3.org/1999/xlink"
   xmlns:sodipodi="http://sodipodi.sourceforge.net/DTD/sodipodi-0.dtd"
   xmlns:inkscape="http://www.inkscape.org/namespaces/inkscape"
   height="16"
   width="16"
   version="1.1"
   id="svg70"
   sodipodi:docname="sc_convertinto3d.svg"
   inkscape:version="0.92.3 (2405546, 2018-03-11)">
  <metadata
     id="metadata76">
    <rdf:RDF>
      <cc:Work
         rdf:about="">
        <dc:format>image/svg+xml</dc:format>
        <dc:type
           rdf:resource="http://purl.org/dc/dcmitype/StillImage" />
      </cc:Work>
    </rdf:RDF>
  </metadata>
  <defs
     id="defs74">
    <radialGradient
       inkscape:collect="always"
       xlink:href="#c"
       id="radialGradient886"
       gradientUnits="userSpaceOnUse"
       gradientTransform="matrix(0.31178019,0,0,0.25833216,3.1285507,-20.759539)"
       cx="23.961966"
       cy="95.505981"
       r="23.961966" />
  </defs>
  <sodipodi:namedview
     pagecolor="#ffffff"
     bordercolor="#666666"
     borderopacity="1"
     objecttolerance="10"
     gridtolerance="10"
     guidetolerance="10"
     inkscape:pageopacity="0"
     inkscape:pageshadow="2"
     inkscape:window-width="1366"
     inkscape:window-height="676"
     id="namedview72"
     showgrid="true"
     inkscape:zoom="14.75"
     inkscape:cx="0.71186441"
     inkscape:cy="7.4576271"
     inkscape:window-x="0"
     inkscape:window-y="27"
     inkscape:window-maximized="1"
     inkscape:current-layer="g68">
    <inkscape:grid
       type="xygrid"
       id="grid912" />
  </sodipodi:namedview>
  <filter
     id="a"
     height="1.509401"
     width="1.128116"
     x="-.064058"
     y="-.254701">
    <feGaussianBlur
       stdDeviation="1.2735026"
       id="feGaussianBlur2" />
  </filter>
  <linearGradient
     id="b">
    <stop
       offset="0"
       stop-color="#cbff10"
       id="stop5" />
    <stop
       offset="1"
       stop-color="#004d00"
       id="stop7" />
  </linearGradient>
  <linearGradient
     id="c">
    <stop
       offset="0"
       stop-color="#fff"
       id="stop10" />
    <stop
       offset="1"
       stop-color="#fff"
       stop-opacity="0"
       id="stop12" />
  </linearGradient>
  <radialGradient
     id="d"
     cx="23.961966"
     cy="95.505981"
     gradientTransform="matrix(1.2118313,0,0,1.0040888,-1.5375778,-1.6495462)"
     gradientUnits="userSpaceOnUse"
     r="23.961966"
     xlink:href="#c" />
  <linearGradient
     id="e"
     gradientTransform="matrix(-0.25728019,0,0,0.25728019,15.850435,-19.811573)"
     gradientUnits="userSpaceOnUse"
     x1="34.305496"
     x2="10.116755"
     xlink:href="#b"
     y1="86.119057"
     y2="110.3078" />
  <linearGradient
     id="f"
     gradientUnits="userSpaceOnUse"
     x1="30.745365"
     x2="3.166721"
     xlink:href="#b"
     y1="91.687608"
     y2="107.61015"
     gradientTransform="matrix(0.25728019,0,0,0.25728019,3.524139,-20.335143)" />
  <linearGradient
     id="g"
     gradientUnits="userSpaceOnUse"
     x1="19.745952"
     x2="19.745952"
     xlink:href="#b"
     y1="81.84781"
     y2="102.03457"
     gradientTransform="matrix(0.25728019,0,0,0.25728019,3.524139,-20.335143)" />
  <filter
     id="h">
    <feGaussianBlur
       stdDeviation=".45393981"
       id="feGaussianBlur19" />
  </filter>
  <clipPath
     id="i">
    <path
       d="m-95.9375 68-23.96875 6.40625h-.0313l-.0625 29.3125 24 12 .03125-15.84375.03125 15.84375 24-12-.06245-29.28125.0625-.03125-.0625-.03125h-.03125z"
       id="path22" />
  </clipPath>
  <linearGradient
     id="j"
     gradientUnits="userSpaceOnUse"
     x1="-101.26798"
     x2="-101.26798"
     y1="99.718452"
     y2="59.979767"
     gradientTransform="translate(0.08910131,-0.03502107)">
    <stop
       offset="0"
       stop-color="#1d3c12"
       id="stop25" />
    <stop
       offset="1"
       stop-color="#1d3c12"
       stop-opacity="0"
       id="stop27" />
  </linearGradient>
  <filter
     id="k">
    <feGaussianBlur
       stdDeviation=".80029544"
       id="feGaussianBlur30" />
  </filter>
  <radialGradient
     id="l"
     cx="23.961966"
     cy="95.505981"
     gradientTransform="matrix(0.19271654,0,0,0.15967942,19.317499,81.87929)"
     gradientUnits="userSpaceOnUse"
     r="23.961966"
     xlink:href="#c" />
  <linearGradient
     id="m"
     gradientTransform="matrix(2.3043855 0 0 2.301606 102.81078 14.683986)"
     gradientUnits="userSpaceOnUse"
     x1="-65.249435"
     x2="-2.216598"
     y1="6.699925"
     y2="32.435417">
    <stop
       offset="0"
       stop-color="#cfd13d"
       id="stop34" />
    <stop
       offset="1"
       stop-color="#db8900"
       id="stop36" />
  </linearGradient>
  <linearGradient
     id="n"
     gradientUnits="userSpaceOnUse"
     x1="-35.670317"
     x2="184.365463"
     y1="61.496036"
     y2="11.854421">
    <stop
       offset="0"
       stop-color="#fdff63"
       id="stop39" />
    <stop
       offset="1"
       stop-color="#fff"
       stop-opacity="0"
       id="stop41" />
  </linearGradient>
  <g
     fill-rule="evenodd"
     transform="matrix(.125 0 0 .125 .000986 .00532)"
     id="g68">
    <g
       id="g910"
       transform="matrix(0.82519737,0,0,0.82519737,7.483609,11.39747)"
       style="stroke-width:1.21183133">
      <path
         transform="matrix(2.0582415,0,0,2.0582415,28.185224,-162.7237)"
         d="m 0.26028,115.82963 23.71312,11.90539 24,-12"
         id="path44"
         inkscape:connector-curvature="0"
         style="stroke:#000000;stroke-width:1.21183133;filter:url(#a)" />
      <path
         transform="matrix(8,0,0,8,-0.007888,-0.04256)"
         d="M 3.5172953,1.82667 9.6920199,4.2955811 15.866744,1.82667 9.6920199,0.18072929 Z"
         id="path46"
         style="fill:#f3b7d9;stroke-width:0.31178018"
         inkscape:connector-curvature="0" />
      <path
         transform="matrix(8,0,0,8,-0.007888,-0.04256)"
         d="M 3.5009864,9.4466084 9.6757109,12.533971 9.6920225,4.3727652 3.5172979,1.8991777 Z"
         id="path48"
         style="fill:#e602b4;stroke-width:0.31178018"
         inkscape:connector-curvature="0" />
      <path
         transform="matrix(8,0,0,8,-0.007888,-0.04256)"
         d="M 15.866744,9.4466084 9.6920199,12.533971 9.6757083,4.3727652 15.850433,1.8991777 Z"
         id="path50"
         style="fill:#9d3a9b;stroke-width:0.31178018"
         inkscape:connector-curvature="0" />
      <path
         transform="matrix(8,0,0,8,-0.007888,-0.04256)"
         d="M 3.5172953,1.8948428 9.6920199,4.2955811 15.847173,1.9078903 9.6887576,4.6087194 9.7018017,12.111028 9.4930394,4.5695794 3.5172902,1.8948428 Z"
         id="path52"
         style="fill:url(#radialGradient886);stroke-width:0.31178018"
         inkscape:connector-curvature="0" />
      <path
         transform="matrix(2.0582415,0,0,2.0582415,28.185224,-162.7237)"
         d="m -0.0266,86.403799 24,9.331221 L 47.89733,86.454512 23.96072,96.95213 24.01142,126.1122 23.2,96.8 -0.02662,86.403799 Z"
         id="path56"
         style="fill:url(#d);stroke-width:1.21183133;filter:url(#k)"
         inkscape:connector-curvature="0" />
      <path
         style="fill:#9d3a9b;stroke-width:1.21183133"
         id="path62"
         d="m 55.89192,49.681346 c -2.787745,0.117635 -5.291858,1.737406 -6.539595,4.230101 l -4.001169,8.001676 c -1.160134,2.319987 -1.066993,5.068571 0.247541,7.304902 l 3.006505,5.11568 h -4.05968 C 44.188598,74.106514 25.259191,73.7446 25.006264,73.137947 24.519559,71.970573 23.674041,67.463057 23.674041,58.00219 c 1.7e-4,-4.233072 -3.435599,-7.664698 -7.673784,-7.664527 H 7.9979194 c -4.2381844,-1.71e-4 -7.67395402,3.431455 -7.6737835,7.664527 0,20.968407 3.0706559,32.851633 9.6181087,40.269115 5.3839414,6.099365 30.0697794,6.995015 35.0083444,7.228485 l -2.443909,2.71967 c -2.102132,2.3413 -2.558944,5.72761 -1.152193,8.54111 l 3.996669,7.99719 c 2.222886,4.44784 8.031601,5.63776 11.82798,2.42298 L 94.994461,95.15155 c 3.483263,-2.952452 3.62806,-8.272011 0.310553,-11.409133 L 61.490855,51.771672 C 59.984133,50.347684 57.964392,49.593627 55.89192,49.681346 Z"
         inkscape:connector-curvature="0" />
      <path
         style="fill:#f3b7d9;stroke-width:1.21183133"
         id="path64"
         d="m 90.028508,89.307551 -33.811804,-31.970018 -4,7.999998 L 62,82.000003 H 24.000001 C 18.463205,78.65741 15.999999,77.563652 15.999999,58.000004 H 8.0000002 C 1.1174437,100.39582 36.446275,99.010144 48.307735,98.19663 L 62,98.000003 48.216703,113.33753 l 4.000001,8 z"
         inkscape:connector-curvature="0" />
    </g>
  </g>
</svg>
