<?xml version="1.0" encoding="UTF-8"?>
<svg width="16" height="16" version="1.1" xmlns="http://www.w3.org/2000/svg" xmlns:cc="http://creativecommons.org/ns#" xmlns:dc="http://purl.org/dc/elements/1.1/" xmlns:rdf="http://www.w3.org/1999/02/22-rdf-syntax-ns#" xmlns:xlink="http://www.w3.org/1999/xlink">
 <metadata>
  <rdf:RDF>
   <cc:Work rdf:about="">
    <dc:format>image/svg+xml</dc:format>
    <dc:type rdf:resource="http://purl.org/dc/dcmitype/StillImage"/>
    <dc:title/>
   </cc:Work>
  </rdf:RDF>
 </metadata>
 <filter id="b">
  <feGaussianBlur stdDeviation="2.4"/>
 </filter>
 <filter id="e" x="-.035933" y="-.036071" width="1.0719" height="1.0721" color-interpolation-filters="sRGB">
  <feGaussianBlur stdDeviation=".66434216"/>
 </filter>
 <clipPath id="h">
  <circle transform="matrix(.86603 .5 .5 -.86603 0 0)" cx="343.91" cy="92.325" r="36"/>
 </clipPath>
 <filter id="i">
  <feGaussianBlur stdDeviation="2.8805897"/>
 </filter>
 <rect x="1" y="2" width="14" height="5" rx=".80705" ry="1" fill="#e602b4" stroke-width=".125"/>
 <path d="m1 6h14v8h-14z" fill="#f3b7d9" stroke-width=".125"/>
 <g transform="matrix(.125 0 0 .125 -9.9245 -29.58)">
  <ellipse transform="matrix(-.96593 -.25882 -.25882 .96593 0 0)" cx="-248.22" cy="269.25" rx="37.091" ry="37.091" fill="none" stroke-width="1.0303"/>
  <ellipse transform="rotate(165)" cx="-74.331" cy="-351.87" rx="35.236" ry="35.236" fill="#9d3a9b"/>
  <path d="m138.11 304.41 16.232 16.232-16.232 16.232 8.5267 8.5267 16.232-16.232 16.232 16.232 8.5267-8.5267-16.232-16.232 16.232-16.232-8.5267-8.5267-16.232 16.232-16.232-16.232z" fill="#fff" fill-rule="evenodd"/>
 </g>
</svg>
