<?xml version="1.0" encoding="UTF-8" standalone="no"?>
<svg
   xmlns:dc="http://purl.org/dc/elements/1.1/"
   xmlns:cc="http://creativecommons.org/ns#"
   xmlns:rdf="http://www.w3.org/1999/02/22-rdf-syntax-ns#"
   xmlns:svg="http://www.w3.org/2000/svg"
   xmlns="http://www.w3.org/2000/svg"
   xmlns:sodipodi="http://sodipodi.sourceforge.net/DTD/sodipodi-0.dtd"
   xmlns:inkscape="http://www.inkscape.org/namespaces/inkscape"
   height="16"
   viewBox="0 0 16 16"
   width="16"
   version="1.1"
   id="svg24"
   sodipodi:docname="sc_selecttextmode.svg"
   inkscape:version="0.92.4 (5da689c313, 2019-01-14)"
   inkscape:export-filename="C:\Users\ING\Documents\libreeee\3_272 (mba alita)\_SC_PNG\sc_selecttextmode.png"
   inkscape:export-xdpi="96"
   inkscape:export-ydpi="96">
  <metadata
     id="metadata30">
    <rdf:RDF>
      <cc:Work
         rdf:about="">
        <dc:format>image/svg+xml</dc:format>
        <dc:type
           rdf:resource="http://purl.org/dc/dcmitype/StillImage" />
      </cc:Work>
    </rdf:RDF>
  </metadata>
  <defs
     id="defs28" />
  <sodipodi:namedview
     pagecolor="#ffffff"
     bordercolor="#666666"
     borderopacity="1"
     objecttolerance="10"
     gridtolerance="10"
     guidetolerance="10"
     inkscape:pageopacity="0"
     inkscape:pageshadow="2"
     inkscape:window-width="1600"
     inkscape:window-height="837"
     id="namedview26"
     showgrid="false"
     inkscape:zoom="14.75"
     inkscape:cx="13.921288"
     inkscape:cy="3.6772859"
     inkscape:window-x="-8"
     inkscape:window-y="-8"
     inkscape:window-maximized="1"
     inkscape:current-layer="svg24" />
  <filter
     id="a"
     color-interpolation-filters="sRGB"
     height="1.112605"
     width="1.128434"
     x="-.064217"
     y="-.056303">
    <feGaussianBlur
       stdDeviation=".22231445"
       id="feGaussianBlur2" />
  </filter>
  <filter
     id="b"
     color-interpolation-filters="sRGB"
     height="1.038131"
     width="1.06476"
     x="-.03238"
     y="-.019066">
    <feGaussianBlur
       stdDeviation=".46367188"
       id="feGaussianBlur5" />
  </filter>
  <path
     style="fill:#f0e3ec;stroke-width:0.5;stroke:#9d3a9b;stroke-miterlimit:4;stroke-dasharray:none"
     inkscape:connector-curvature="0"
     id="path10"
     d="m 4.0493406,6.9083796 c -0.8351201,0 -1.6222868,0.2050369 -2.2735539,0.6436454 -0.6503523,0.4352108 -1.12489425,1.1557245 -1.12489425,1.9507404 0,0.4263784 0.19573378,0.8433406 0.47530745,1.1229136 0.1242822,0.124283 0.2732731,0.189076 0.4238158,0.237654 -0.1483739,0.107106 -0.2907648,0.22335 -0.415894,0.376285 -0.09504,0.11616 -0.19390609,0.244492 -0.29310628,0.382227 -0.001146,0.0016 -0.002819,0.0023 -0.003965,0.004 h 0.001977 c -0.001105,0.0014 -0.002859,0.0025 -0.003965,0.004 1.4257e-4,-2e-4 -0.007666,0.01245 -0.0118829,0.0198 -1.9225e-4,3.59e-4 1.3506e-4,0.0017 0,0.002 -6.9722e-4,0.0012 -0.001673,0.0033 -0.001977,0.004 -6.3232e-4,0.0014 -0.001856,0.0037 -0.001977,0.004 -0.16300454,0.221333 -0.28429763,0.472617 -0.35053921,0.734746 -0.0609326,0.232333 -0.0911008,0.472945 -0.0911008,0.716922 0,0.65661 0.23261865,1.313907 0.69315659,1.790324 6.6e-4,4e-6 0.00132,4e-6 0.00198,0 0.0036,0.0037 0.00625,0.0083 0.00991,0.01188 0.4692321,0.469233 1.1272573,0.720884 1.7883443,0.720884 0.582842,0 1.1208769,-0.242876 1.6477324,-0.556507 0.3670305,0.398372 0.8966219,0.556507 1.3724502,0.556507 0.3725542,0 0.7506147,-0.07923 1.0892462,-0.257459 0.00133,-6.49e-4 0.00265,-0.0013 0.00396,-0.002 0.00476,-0.0026 0.00916,-0.0052 0.013863,-0.0079 l 0.00198,-0.002 c 0.3494213,-0.19294 0.6260553,-0.456219 0.9149662,-0.778467 0.1594597,-0.177237 0.2507628,-0.415137 0.2515168,-0.653548 V 13.558722 C 8.1666177,13.252305 8.0136939,12.949788 7.7666409,12.768525 7.5770553,12.629424 7.3372336,12.591281 7.1031909,12.610089 v -2.418127 c 0,-0.8972704 -0.1592964,-1.7003149 -0.6555281,-2.3290067 l -0.00198,-0.00198 C 5.892423,7.1523747 4.9941529,6.9083796 4.0493406,6.9083796 Z"
     sodipodi:nodetypes="scsccccccccccccscccscscccccccccsccs" />
  <path
     style="fill:#f0e3ec;stroke-width:0.5;stroke:#9d3a9b;stroke-miterlimit:4;stroke-dasharray:none"
     inkscape:connector-curvature="0"
     id="path16"
     d="M 9,2.001953 A 0.9982668,0.9982668 0 0 0 8.001953,3 V 4 A 0.9982668,0.9982668 0 0 0 9,4.998047 h 1.001953 v 8.003906 H 9 A 0.9982668,0.9982668 0 0 0 8.001953,14 v 1 A 0.9982668,0.9982668 0 0 0 9,15.998047 h 2 A 0.9982668,0.9982668 0 0 0 11.998047,15 v -0.002 h 0.0039 V 15 A 0.9982668,0.9982668 0 0 0 13,15.998047 h 2 A 0.9982668,0.9982668 0 0 0 15.998047,15 V 14 A 0.9982668,0.9982668 0 0 0 15,13.001953 H 13.998047 V 4.998047 H 15 A 0.9982668,0.9982668 0 0 0 15.998047,4 V 3 A 0.9982668,0.9982668 0 0 0 15,2.001953 H 13 A 0.9982668,0.9982668 0 0 0 12.001953,3 v 0.00195 h -0.0039 V 3 A 0.9982668,0.9982668 0 0 0 11,2.001953 Z" />
  <path
     style="fill:#9d3a9b;stroke-width:3.77952743"
     inkscape:connector-curvature="0"
     id="path18"
     d="M 9.0000002,3.000005 V 3.9999925 L 11,4.0000302 V 3.000005 Z M 11,4.0000302 v 9.9999878 h 2 V 4.0000302 Z m 2,0 h 2 V 3.000005 h -2 z m 0,9.9999878 v 0.999987 h 2.000001 l -3e-6,-0.999988 z m -2,0 H 9.0000002 v 0.999987 H 11 Z" />
  <path
     d="m.49185739 13.340489q0-.32309.0717976-.592331.0717976-.28719.25129167-.520532.17949409-.251292.34103874-.448736.1615447-.197443.484634-.394886.3230893-.215393.5384821-.341039.2153929-.143595.6461786-.323089.4487352-.197444.6820774-.287191.2333423-.107696.7359257-.30514.5025833-.1974433.7359256-.2871903v-1.0949138q0-1.4898007-1.3641548-1.4898007-.5384822 0-.9154197.2692411-.3769375.2512917-.3769375.6102798 0 .1435953.035899.3948869.053848.2512917.053848.3230893 0 .3051399-.2512917.5384822-.2333423.2153929-.5564316.2153929-.3051399 0-.5384821-.2333423-.2333423-.2333423-.2333423-.5384822 0-.843622.8615715-1.418003.8795209-.5923304 2.1539287-.5923304 1.4718512 0 2.0282828.7179762.5564316.7000269.5564316 2.1539287v3.5001346q0 .59233.1076964.825672.1256458.215393.4307857.215393.3769376 0 .7897739-.341039v.466685q-.4666846.520533-.8256727.717976-.3410387.179494-.7897738.179494-.5564316 0-.8256727-.30514-.2512917-.30514-.3230893-1.005166-1.5436489 1.310306-2.6206132 1.310306-.8256727 0-1.3641548-.538482-.52053281-.538482-.52053281-1.382104zm4.48735141-.466685v-2.602664q-1.6154465.592331-2.2616251 1.148762-.6461786.556432-.6461786 1.346206 0 .735925.3589881 1.094914.3589881.358988.7718244.358988.6102798 0 1.3103067-.412837.2871905-.161544.3769375-.341038.089747-.179494.089747-.592331z"
     transform="matrix(.80150539 0 0 .80150539 .964994 2.419802)"
     id="path22"
     style="fill:#9d3a9b" />
</svg>
